<?xml version="1.0" encoding="UTF-8" standalone="no"?>
<svg
   xmlns:dc="http://purl.org/dc/elements/1.1/"
   xmlns:cc="http://creativecommons.org/ns#"
   xmlns:rdf="http://www.w3.org/1999/02/22-rdf-syntax-ns#"
   xmlns:svg="http://www.w3.org/2000/svg"
   xmlns="http://www.w3.org/2000/svg"
   xmlns:sodipodi="http://sodipodi.sourceforge.net/DTD/sodipodi-0.dtd"
   xmlns:inkscape="http://www.inkscape.org/namespaces/inkscape"
   width="107.07929mm"
   height="127.52618mm"
   viewBox="0 0 107.07929 127.52618"
   version="1.1"
   id="svg8"
   inkscape:version="1.0 (4035a4fb49, 2020-05-01)"
   sodipodi:docname="logo-whiteTextV.svg"
   inkscape:export-filename="C:\Users\darie\Desktop\Work\Evenir\Construction website\assets\img\logo.png"
   inkscape:export-xdpi="96"
   inkscape:export-ydpi="96">
  <defs
     id="defs2" />
  <sodipodi:namedview
     fit-margin-bottom="0"
     fit-margin-right="0"
     fit-margin-left="0"
     fit-margin-top="0"
     id="base"
     pagecolor="#ffffff"
     bordercolor="#666666"
     borderopacity="1.0"
     inkscape:pageopacity="0.0"
     inkscape:pageshadow="2"
     inkscape:zoom="0.086124641"
     inkscape:cx="587.4455"
     inkscape:cy="2054.34"
     inkscape:document-units="mm"
     inkscape:current-layer="layer1"
     inkscape:document-rotation="0"
     showgrid="false"
     inkscape:window-width="958"
     inkscape:window-height="1018"
     inkscape:window-x="1673"
     inkscape:window-y="0"
     inkscape:window-maximized="0"
     showguides="true"
     inkscape:guide-bbox="true" />
  <metadata
     id="metadata5">
    <rdf:RDF>
      <cc:Work
         rdf:about="">
        <dc:format>image/svg+xml</dc:format>
        <dc:type
           rdf:resource="http://purl.org/dc/dcmitype/StillImage" />
        <dc:title></dc:title>
      </cc:Work>
    </rdf:RDF>
  </metadata>
  <g
     transform="translate(-76.783206,686.37721)"
     inkscape:label="Layer 1"
     inkscape:groupmode="layer"
     id="layer1">
    <g
       inkscape:export-ydpi="96"
       inkscape:export-xdpi="96"
       inkscape:export-filename="C:\Users\darie\Desktop\Work\Evenir\Construction website\assets\img\logo-whiteTextVertical.png"
       id="g1286"
       transform="matrix(4.1774536,0,0,4.1774536,-504.31496,-736.51149)"
       style="stroke-width:0.23938">
      <g
         transform="translate(-1.060194)"
         id="g1276"
         style="stroke-width:0.23938">
        <g
           transform="translate(56.618077,-42.831835)"
           id="g1274"
           style="stroke-width:0.23938">
          <path
             id="path1258"
             style="color:#000000;font-style:normal;font-variant:normal;font-weight:normal;font-stretch:normal;font-size:medium;line-height:normal;font-family:sans-serif;font-variant-ligatures:normal;font-variant-position:normal;font-variant-caps:normal;font-variant-numeric:normal;font-variant-alternates:normal;font-variant-east-asian:normal;font-feature-settings:normal;font-variation-settings:normal;text-indent:0;text-align:start;text-decoration:none;text-decoration-line:none;text-decoration-style:solid;text-decoration-color:#000000;letter-spacing:normal;word-spacing:normal;text-transform:none;writing-mode:lr-tb;direction:ltr;text-orientation:mixed;dominant-baseline:auto;baseline-shift:baseline;text-anchor:start;white-space:normal;shape-padding:0;shape-margin:0;inline-size:0;clip-rule:nonzero;display:inline;overflow:visible;visibility:visible;opacity:1;isolation:auto;mix-blend-mode:normal;color-interpolation:sRGB;color-interpolation-filters:linearRGB;solid-color:#000000;solid-opacity:1;vector-effect:none;fill:#ff0000;fill-opacity:1;fill-rule:nonzero;stroke:none;stroke-width:0.633359;stroke-linecap:round;stroke-linejoin:miter;stroke-miterlimit:4;stroke-dasharray:none;stroke-dashoffset:0;stroke-opacity:1;paint-order:fill markers stroke;color-rendering:auto;image-rendering:auto;shape-rendering:auto;text-rendering:auto;enable-background:accumulate;stop-color:#000000"
             d="m 103.28672,62.445283 c 0.22518,0.698743 0.3483,1.444466 0.3483,2.220536 0,3.981988 -3.20001,7.181993 -7.181993,7.181991 -3.981987,0 -7.181474,-3.200003 -7.181474,-7.181991 0,-0.759724 0.11716,-1.49063 0.333312,-2.17661 l -2.952274,1.475877 c -0.01648,0.231791 -0.02739,0.464879 -0.02739,0.700733 0,5.411899 4.415925,9.82834 9.827826,9.82834 5.411893,3e-6 9.828343,-4.416441 9.828343,-9.82834 0,-0.344114 -0.0184,-0.683876 -0.0532,-1.019058 z" />
          <g
             id="g1272"
             style="stroke-width:0.23938">
            <g
               style="opacity:1;fill:#ff0000;stroke-width:0.23938"
               id="g1264">
              <path
                 id="path1260"
                 d="M 84.953819,64.292632 96.377931,56.156419"
                 style="color:#000000;font-style:normal;font-variant:normal;font-weight:normal;font-stretch:normal;font-size:medium;line-height:normal;font-family:sans-serif;font-variant-ligatures:normal;font-variant-position:normal;font-variant-caps:normal;font-variant-numeric:normal;font-variant-alternates:normal;font-variant-east-asian:normal;font-feature-settings:normal;font-variation-settings:normal;text-indent:0;text-align:start;text-decoration:none;text-decoration-line:none;text-decoration-style:solid;text-decoration-color:#000000;letter-spacing:normal;word-spacing:normal;text-transform:none;writing-mode:lr-tb;direction:ltr;text-orientation:mixed;dominant-baseline:auto;baseline-shift:baseline;text-anchor:start;white-space:normal;shape-padding:0;shape-margin:0;inline-size:0;clip-rule:nonzero;display:inline;overflow:visible;visibility:visible;isolation:auto;mix-blend-mode:normal;color-interpolation:sRGB;color-interpolation-filters:linearRGB;solid-color:#000000;solid-opacity:1;vector-effect:none;fill:#ff0000;fill-opacity:1;fill-rule:nonzero;stroke:none;stroke-width:0.633359;stroke-linecap:round;stroke-linejoin:round;stroke-miterlimit:4;stroke-dasharray:none;stroke-dashoffset:0;stroke-opacity:1;color-rendering:auto;image-rendering:auto;shape-rendering:auto;text-rendering:auto;enable-background:accumulate;stop-color:#000000;stop-opacity:1" />
              <path
                 id="path1262"
                 d="m 96.380859,54.833984 a 1.322915,1.322915 0 0 0 -0.769531,0.244141 l -11.425781,8.136719 a 1.322915,1.322915 0 0 0 -0.308594,1.845703 1.322915,1.322915 0 0 0 1.84375,0.310547 l 11.423828,-8.136719 a 1.322915,1.322915 0 0 0 0.310547,-1.845703 1.322915,1.322915 0 0 0 -1.074219,-0.554688 z"
                 style="color:#000000;font-style:normal;font-variant:normal;font-weight:normal;font-stretch:normal;font-size:medium;line-height:normal;font-family:sans-serif;font-variant-ligatures:normal;font-variant-position:normal;font-variant-caps:normal;font-variant-numeric:normal;font-variant-alternates:normal;font-variant-east-asian:normal;font-feature-settings:normal;font-variation-settings:normal;text-indent:0;text-align:start;text-decoration:none;text-decoration-line:none;text-decoration-style:solid;text-decoration-color:#000000;letter-spacing:normal;word-spacing:normal;text-transform:none;writing-mode:lr-tb;direction:ltr;text-orientation:mixed;dominant-baseline:auto;baseline-shift:baseline;text-anchor:start;white-space:normal;shape-padding:0;shape-margin:0;inline-size:0;clip-rule:nonzero;display:inline;overflow:visible;visibility:visible;isolation:auto;mix-blend-mode:normal;color-interpolation:sRGB;color-interpolation-filters:linearRGB;solid-color:#000000;solid-opacity:1;vector-effect:none;fill:#ff0000;fill-opacity:1;fill-rule:nonzero;stroke:none;stroke-width:0.633359;stroke-linecap:round;stroke-linejoin:round;stroke-miterlimit:4;stroke-dasharray:none;stroke-dashoffset:0;stroke-opacity:1;color-rendering:auto;image-rendering:auto;shape-rendering:auto;text-rendering:auto;enable-background:accumulate;stop-color:#000000;stop-opacity:1" />
            </g>
            <g
               style="opacity:1;fill:#ff0000;stroke-width:0.23938"
               id="g1270">
              <path
                 id="path1266"
                 d="M 107.80943,64.292632 96.385313,56.156419"
                 style="color:#000000;font-style:normal;font-variant:normal;font-weight:normal;font-stretch:normal;font-size:medium;line-height:normal;font-family:sans-serif;font-variant-ligatures:normal;font-variant-position:normal;font-variant-caps:normal;font-variant-numeric:normal;font-variant-alternates:normal;font-variant-east-asian:normal;font-feature-settings:normal;font-variation-settings:normal;text-indent:0;text-align:start;text-decoration:none;text-decoration-line:none;text-decoration-style:solid;text-decoration-color:#000000;letter-spacing:normal;word-spacing:normal;text-transform:none;writing-mode:lr-tb;direction:ltr;text-orientation:mixed;dominant-baseline:auto;baseline-shift:baseline;text-anchor:start;white-space:normal;shape-padding:0;shape-margin:0;inline-size:0;clip-rule:nonzero;display:inline;overflow:visible;visibility:visible;isolation:auto;mix-blend-mode:normal;color-interpolation:sRGB;color-interpolation-filters:linearRGB;solid-color:#000000;solid-opacity:1;vector-effect:none;fill:#ff0000;fill-opacity:1;fill-rule:nonzero;stroke:none;stroke-width:0.633359;stroke-linecap:round;stroke-linejoin:round;stroke-miterlimit:4;stroke-dasharray:none;stroke-dashoffset:0;stroke-opacity:1;color-rendering:auto;image-rendering:auto;shape-rendering:auto;text-rendering:auto;enable-background:accumulate;stop-color:#000000;stop-opacity:1" />
              <path
                 id="path1268"
                 d="m 96.333984,54.833984 a 1.322915,1.322915 0 0 0 -1.02539,0.554688 1.322915,1.322915 0 0 0 0.308594,1.845703 l 11.425782,8.136719 a 1.322915,1.322915 0 0 0 1.84375,-0.310547 1.322915,1.322915 0 0 0 -0.31055,-1.845703 L 97.152344,55.078125 a 1.322915,1.322915 0 0 0 -0.81836,-0.244141 z"
                 style="color:#000000;font-style:normal;font-variant:normal;font-weight:normal;font-stretch:normal;font-size:medium;line-height:normal;font-family:sans-serif;font-variant-ligatures:normal;font-variant-position:normal;font-variant-caps:normal;font-variant-numeric:normal;font-variant-alternates:normal;font-variant-east-asian:normal;font-feature-settings:normal;font-variation-settings:normal;text-indent:0;text-align:start;text-decoration:none;text-decoration-line:none;text-decoration-style:solid;text-decoration-color:#000000;letter-spacing:normal;word-spacing:normal;text-transform:none;writing-mode:lr-tb;direction:ltr;text-orientation:mixed;dominant-baseline:auto;baseline-shift:baseline;text-anchor:start;white-space:normal;shape-padding:0;shape-margin:0;inline-size:0;clip-rule:nonzero;display:inline;overflow:visible;visibility:visible;isolation:auto;mix-blend-mode:normal;color-interpolation:sRGB;color-interpolation-filters:linearRGB;solid-color:#000000;solid-opacity:1;vector-effect:none;fill:#ff0000;fill-opacity:1;fill-rule:nonzero;stroke:none;stroke-width:0.633359;stroke-linecap:round;stroke-linejoin:round;stroke-miterlimit:4;stroke-dasharray:none;stroke-dashoffset:0;stroke-opacity:1;color-rendering:auto;image-rendering:auto;shape-rendering:auto;text-rendering:auto;enable-background:accumulate;stop-color:#000000;stop-opacity:1" />
            </g>
          </g>
        </g>
      </g>
      <g
         style="font-size:11.9046px;line-height:1.25;font-family:MOMCAKE;-inkscape-font-specification:MOMCAKE;fill:#ffffff;stroke-width:0.39249"
         id="text1280"
         aria-label="CENAJ">
        <path
           id="path1015"
           style="font-weight:bold;fill:#ffffff;stroke-width:0.39249"
           d="m 142.24684,33.593288 c -1.61902,0 -3.119,1.178556 -3.119,3.083292 v 0 c 0,1.91664 1.49998,3.095196 3.119,3.095196 v 0 c 0.7738,0 1.5357,-0.249997 2.26188,-0.761895 l -0.64285,-0.952368 c -0.69047,0.452375 -1.16665,0.499993 -1.61903,0.499993 -0.92856,0 -1.84521,-0.869035 -1.84521,-1.880926 0,-1.011891 0.91665,-1.869023 1.84521,-1.869023 0.45238,0 0.92856,0.04762 1.61903,0.499994 l 0.64285,-0.952368 c -0.72618,-0.511898 -1.48808,-0.761895 -2.26188,-0.761895 z" />
        <path
           id="path1017"
           style="font-weight:bold;fill:#ffffff;stroke-width:0.39249"
           d="m 145.10339,33.736143 v 5.880873 h 1.24998 2.65473 v -1.249983 h -2.65473 v -1.107128 h 2.55949 v -1.154746 h -2.55949 v -1.107128 h 2.65473 v -1.261888 h -2.65473 z" />
        <path
           id="path1019"
           style="font-weight:bold;fill:#ffffff;stroke-width:0.39249"
           d="m 153.58467,33.736143 v 3.464239 l -2.63091,-3.464239 h -1.10713 v 5.880873 h 1.24998 v -3.452334 l 2.63092,3.452334 h 1.10713 v -5.880873 h -0.95237 z" />
        <path
           id="path1021"
           style="font-weight:bold;fill:#ffffff;stroke-width:0.39249"
           d="m 157.56974,33.736143 -2.14283,5.880873 h 1.33332 l 0.42856,-1.178556 h 2.08331 l 0.44047,1.178556 h 1.33331 l -2.14283,-5.880873 z m 0.66666,1.833309 0.58332,1.63093 h -1.17855 z" />
        <path
           id="path1023"
           style="font-weight:bold;fill:#ffffff;stroke-width:0.39249"
           d="m 163.46196,33.736143 v 3.988041 c 0,1.047605 -1.04761,0.857132 -1.39284,0.46428 l -0.66666,1.023795 c 1.59522,1.19046 3.30948,0.369043 3.30948,-1.440456 v -4.03566 z" />
      </g>
      <g
         style="font-size:3.14206px;line-height:1.25;font-family:MOMCAKE;-inkscape-font-specification:MOMCAKE;letter-spacing:0.781234px;fill:#ffffff;stroke-width:0.103593"
         id="text1284"
         aria-label="CONSTRUCTION">
        <path
           id="path1026"
           style="font-weight:bold;fill:#ffffff;stroke-width:0.103593"
           d="m 139.92666,40.897678 c -0.42732,0 -0.82322,0.311064 -0.82322,0.813793 v 0 c 0,0.505872 0.3959,0.816936 0.82322,0.816936 v 0 c 0.20423,0 0.40532,-0.06598 0.59699,-0.201092 l -0.16967,-0.251365 c -0.18224,0.119399 -0.30792,0.131967 -0.42732,0.131967 -0.24508,0 -0.48702,-0.22937 -0.48702,-0.496446 0,-0.267075 0.24194,-0.493303 0.48702,-0.493303 0.1194,0 0.24508,0.01257 0.42732,0.131967 l 0.16967,-0.251365 c -0.19167,-0.135109 -0.39276,-0.201092 -0.59699,-0.201092 z" />
        <path
           id="path1028"
           style="font-weight:bold;fill:#ffffff;stroke-width:0.103593"
           d="m 142.1499,40.897678 c -0.45245,0 -0.81693,0.364479 -0.81693,0.813793 0,0.452457 0.36448,0.816936 0.81693,0.816936 0.45246,0 0.82008,-0.364479 0.82008,-0.816936 0,-0.449314 -0.36762,-0.813793 -0.82008,-0.813793 z m 0,0.32049 c 0.24508,0 0.48388,0.226228 0.48388,0.493303 0,0.267076 -0.2388,0.496446 -0.48388,0.496446 -0.24194,0 -0.48073,-0.22937 -0.48073,-0.496446 0,-0.267075 0.23879,-0.493303 0.48073,-0.493303 z" />
        <path
           id="path1030"
           style="font-weight:bold;fill:#ffffff;stroke-width:0.103593"
           d="m 144.92345,40.935383 v 0.914339 l -0.6944,-0.914339 h -0.29221 v 1.552177 h 0.32992 v -0.911197 l 0.69439,0.911197 h 0.29221 V 40.935383 H 145.002 Z" />
        <path
           id="path1032"
           style="font-weight:bold;fill:#ffffff;stroke-width:0.103593"
           d="m 146.76518,40.897678 c -0.12569,0 -0.25451,0.03142 -0.36134,0.113114 -0.10369,0.07855 -0.18224,0.226228 -0.18224,0.380189 0,0.147677 0.088,0.292212 0.18224,0.358195 0.10369,0.07227 0.20109,0.0974 0.29221,0.125683 0.0408,0.01257 0.0785,0.01885 0.1194,0.02828 0.0189,0.0063 0.0377,0.01257 0.0534,0.02828 0.0189,0.01257 0.0377,0.03456 0.0408,0.06284 0.009,0.03771 -0.003,0.08169 -0.0283,0.113114 -0.0251,0.03456 -0.066,0.0597 -0.11625,0.07227 -0.10055,0.02514 -0.19167,0.0031 -0.26394,-0.02514 -0.0346,-0.01571 -0.066,-0.03142 -0.088,-0.04399 l -0.16968,0.307922 c 0.21052,0.103688 0.3959,0.109972 0.51216,0.109972 0.26707,0 0.51844,-0.21366 0.51844,-0.521582 0,-0.144535 -0.0943,-0.289069 -0.18538,-0.351911 -0.10369,-0.06912 -0.20109,-0.09426 -0.28907,-0.12254 v 0 c -0.0346,-0.0094 -0.0817,-0.01885 -0.12568,-0.03456 -0.0189,-0.0063 -0.0409,-0.01571 -0.0597,-0.03142 -0.0189,-0.01571 -0.0377,-0.04713 -0.0377,-0.07541 0,-0.04713 0.0188,-0.08798 0.0503,-0.116256 0.0314,-0.02828 0.0691,-0.04713 0.11311,-0.05341 0.0848,-0.0094 0.16967,0.02199 0.23251,0.05341 0.0251,0.01257 0.0408,0.022 0.0566,0.03142 l 0.14768,-0.314206 c -0.16653,-0.07227 -0.29222,-0.09426 -0.41161,-0.09426 z" />
        <path
           id="path1034"
           style="font-weight:bold;fill:#ffffff;stroke-width:0.103593"
           d="m 148.15042,40.935383 v 0.333058 h 0.35505 0.11626 v 1.219119 h 0.33934 v -1.219119 h 0.11312 0.35819 v -0.333058 h -0.35819 -0.56872 z" />
        <path
           id="path1036"
           style="font-weight:bold;fill:#ffffff;stroke-width:0.103593"
           d="m 151.06359,40.935383 h -0.62841 v 1.552177 h 0.32992 v -0.24508 -0.05027 h 0.066 l 0.36134,0.295353 h 0.4556 l -0.40533,-0.339342 c 0.24194,-0.07855 0.39904,-0.314206 0.39904,-0.590708 0,-0.342484 -0.23879,-0.622127 -0.57814,-0.622127 z m -0.29849,0.345626 h 0.26393 c 0.15396,0 0.27336,0.122541 0.27336,0.276501 0,0.150819 -0.12254,0.267076 -0.27336,0.276502 h -0.26393 z" />
        <path
           id="path1038"
           style="font-weight:bold;fill:#ffffff;stroke-width:0.103593"
           d="m 152.61561,40.935383 v 0.955186 0.01257 0 c 0.006,0.345627 0.28593,0.62527 0.62842,0.62527 0.34248,0 0.62212,-0.279643 0.62841,-0.62527 v 0 -0.01257 -0.955186 h -0.33934 v 0.392757 0.553003 0.02199 0 c -0.006,0.150819 -0.1414,0.282786 -0.28907,0.282786 -0.15082,0 -0.28593,-0.131967 -0.29222,-0.282786 v 0 -0.02199 -0.553003 -0.392757 z" />
        <path
           id="path1040"
           style="font-weight:bold;fill:#ffffff;stroke-width:0.103593"
           d="m 155.66836,40.897678 c -0.42732,0 -0.82322,0.311064 -0.82322,0.813793 v 0 c 0,0.505872 0.3959,0.816936 0.82322,0.816936 v 0 c 0.20424,0 0.40533,-0.06598 0.59699,-0.201092 l -0.16967,-0.251365 c -0.18224,0.119399 -0.30792,0.131967 -0.42732,0.131967 -0.24508,0 -0.48702,-0.22937 -0.48702,-0.496446 0,-0.267075 0.24194,-0.493303 0.48702,-0.493303 0.1194,0 0.24508,0.01257 0.42732,0.131967 l 0.16967,-0.251365 c -0.19166,-0.135109 -0.39275,-0.201092 -0.59699,-0.201092 z" />
        <path
           id="path1043"
           style="font-weight:bold;fill:#ffffff;stroke-width:0.103593"
           d="m 157.23423,40.935383 v 0.333058 h 0.35505 0.11626 v 1.219119 h 0.33934 v -1.219119 h 0.11311 0.3582 v -0.333058 h -0.3582 -0.56871 z" />
        <path
           id="path1045"
           style="font-weight:bold;fill:#ffffff;stroke-width:0.103593"
           d="m 159.51899,42.48756 h 0.32991 v -1.552177 h -0.32991 z" />
        <path
           id="path1047"
           style="font-weight:bold;fill:#ffffff;stroke-width:0.103593"
           d="m 161.63265,40.897678 c -0.45246,0 -0.81694,0.364479 -0.81694,0.813793 0,0.452457 0.36448,0.816936 0.81694,0.816936 0.45246,0 0.82008,-0.364479 0.82008,-0.816936 0,-0.449314 -0.36762,-0.813793 -0.82008,-0.813793 z m 0,0.32049 c 0.24508,0 0.48388,0.226228 0.48388,0.493303 0,0.267076 -0.2388,0.496446 -0.48388,0.496446 -0.24194,0 -0.48074,-0.22937 -0.48074,-0.496446 0,-0.267075 0.2388,-0.493303 0.48074,-0.493303 z" />
        <path
           id="path1049"
           style="font-weight:bold;fill:#ffffff;stroke-width:0.103593"
           d="m 164.40619,40.935383 v 0.914339 l -0.69439,-0.914339 h -0.29221 v 1.552177 h 0.32991 v -0.911197 l 0.6944,0.911197 h 0.29221 v -1.552177 h -0.25136 z" />
      </g>
    </g>
  </g>
</svg>
