<?xml version="1.0" encoding="UTF-8" standalone="no"?>
<svg
   xmlns:dc="http://purl.org/dc/elements/1.1/"
   xmlns:cc="http://creativecommons.org/ns#"
   xmlns:rdf="http://www.w3.org/1999/02/22-rdf-syntax-ns#"
   xmlns:svg="http://www.w3.org/2000/svg"
   xmlns="http://www.w3.org/2000/svg"
   xmlns:sodipodi="http://sodipodi.sourceforge.net/DTD/sodipodi-0.dtd"
   xmlns:inkscape="http://www.inkscape.org/namespaces/inkscape"
   width="352.31314mm"
   height="82.283096mm"
   viewBox="0 0 352.31313 82.283096"
   version="1.1"
   id="svg8"
   inkscape:version="1.0 (4035a4fb49, 2020-05-01)"
   sodipodi:docname="logo-whiteTextt.svg"
   inkscape:export-filename="C:\Users\darie\Desktop\Work\Evenir\Construction website\assets\img\logo.png"
   inkscape:export-xdpi="96"
   inkscape:export-ydpi="96">
  <defs
     id="defs2" />
  <sodipodi:namedview
     fit-margin-bottom="0"
     fit-margin-right="0"
     fit-margin-left="0"
     fit-margin-top="0"
     id="base"
     pagecolor="#ffffff"
     bordercolor="#666666"
     borderopacity="1.0"
     inkscape:pageopacity="0.0"
     inkscape:pageshadow="2"
     inkscape:zoom="0.086124641"
     inkscape:cx="1936.0093"
     inkscape:cy="341.57692"
     inkscape:document-units="mm"
     inkscape:current-layer="layer1"
     inkscape:document-rotation="0"
     showgrid="false"
     inkscape:window-width="958"
     inkscape:window-height="1018"
     inkscape:window-x="1673"
     inkscape:window-y="0"
     inkscape:window-maximized="0"
     showguides="true"
     inkscape:guide-bbox="true" />
  <metadata
     id="metadata5">
    <rdf:RDF>
      <cc:Work
         rdf:about="">
        <dc:format>image/svg+xml</dc:format>
        <dc:type
           rdf:resource="http://purl.org/dc/dcmitype/StillImage" />
        <dc:title></dc:title>
      </cc:Work>
    </rdf:RDF>
  </metadata>
  <g
     transform="translate(280.0243,233.20865)"
     inkscape:label="Layer 1"
     inkscape:groupmode="layer"
     id="layer1">
    <g
       inkscape:export-ydpi="96"
       inkscape:export-xdpi="96"
       inkscape:export-filename="C:\Users\darie\Desktop\Work\Evenir\Construction website\assets\img\logo-whiteText.png"
       id="g1254"
       transform="matrix(4.1774536,0,0,4.1774536,-335.32375,-288.50813)"
       style="stroke-width:0.23938">
      <g
         style="font-size:26.2336px;line-height:1.25;font-family:MOMCAKE;-inkscape-font-specification:MOMCAKE;fill:#ffffff;stroke-width:0.392488"
         id="text1226"
         aria-label="CENAJ">
        <path
           id="path978"
           style="font-weight:bold;fill:#ffffff;stroke-width:0.392488"
           d="m 48.015461,13.237606 c -3.56777,0 -6.873203,2.597127 -6.873203,6.794503 v 0 c 0,4.22361 3.305433,6.820736 6.873203,6.820736 v 0 c 1.705184,0 3.384135,-0.550905 4.984384,-1.67895 l -1.416614,-2.098688 c -1.521549,0.996877 -2.570893,1.101811 -3.56777,1.101811 -2.046221,0 -4.066208,-1.915053 -4.066208,-4.144909 0,-2.229856 2.019987,-4.118675 4.066208,-4.118675 0.996877,0 2.046221,0.104934 3.56777,1.101811 l 1.416614,-2.098688 c -1.600249,-1.128045 -3.2792,-1.678951 -4.984384,-1.678951 z" />
        <path
           id="path980"
           style="font-weight:bold;fill:#ffffff;stroke-width:0.392488"
           d="m 54.310295,13.55241 v 12.959398 h 2.754528 5.850093 V 23.75728 h -5.850093 v -2.439725 h 5.640224 v -2.544659 h -5.640224 v -2.439725 h 5.850093 V 13.55241 h -5.850093 z" />
        <path
           id="path982"
           style="font-weight:bold;fill:#ffffff;stroke-width:0.392488"
           d="m 73.000095,13.55241 v 7.633977 L 67.20247,13.55241 h -2.439725 v 12.959398 h 2.754528 v -7.607744 l 5.797626,7.607744 h 2.439725 V 13.55241 h -2.098688 z" />
        <path
           id="path984"
           style="font-weight:bold;fill:#ffffff;stroke-width:0.392488"
           d="m 81.781794,13.55241 -4.722048,12.959398 h 2.938163 l 0.94441,-2.597126 h 4.59088 l 0.970643,2.597126 h 2.938163 L 84.719957,13.55241 Z m 1.469082,4.039974 1.285446,3.594003 h -2.597126 z" />
        <path
           id="path986"
           style="font-weight:bold;fill:#ffffff;stroke-width:0.392488"
           d="m 94.766196,13.55241 v 8.788256 c 0,2.308557 -2.308557,1.888819 -3.069331,1.02311 l -1.469082,2.25609 c 3.515303,2.62336 7.292941,0.813242 7.292941,-3.174266 v -8.89319 z" />
      </g>
      <g
         style="font-size:6.92406px;line-height:1.25;font-family:MOMCAKE;-inkscape-font-specification:MOMCAKE;letter-spacing:1.72158px;fill:#ffffff;stroke-width:0.103593"
         id="text1230"
         aria-label="CONSTRUCTION">
        <path
           id="path989"
           style="font-weight:bold;fill:#ffffff;stroke-width:0.103593"
           d="m 42.902612,29.333958 c -0.941672,0 -1.814103,0.685482 -1.814103,1.793331 v 0 c 0,1.114774 0.872431,1.800256 1.814103,1.800256 v 0 c 0.450064,0 0.893204,-0.145405 1.315572,-0.44314 l -0.3739,-0.553925 c -0.401595,0.263114 -0.678557,0.290811 -0.941672,0.290811 -0.540076,0 -1.073229,-0.505457 -1.073229,-1.094002 0,-0.588545 0.533153,-1.087077 1.073229,-1.087077 0.263115,0 0.540077,0.0277 0.941672,0.29081 l 0.3739,-0.553924 c -0.422368,-0.297735 -0.865508,-0.44314 -1.315572,-0.44314 z" />
        <path
           id="path992"
           style="font-weight:bold;fill:#ffffff;stroke-width:0.103593"
           d="m 47.801903,29.333958 c -0.997065,0 -1.800256,0.803191 -1.800256,1.793331 0,0.997065 0.803191,1.800256 1.800256,1.800256 0.997065,0 1.80718,-0.803191 1.80718,-1.800256 0,-0.99014 -0.810115,-1.793331 -1.80718,-1.793331 z m 0,0.706254 c 0.540077,0 1.066305,0.498532 1.066305,1.087077 0,0.588545 -0.526228,1.094002 -1.066305,1.094002 -0.533153,0 -1.059381,-0.505457 -1.059381,-1.094002 0,-0.588545 0.526228,-1.087077 1.059381,-1.087077 z" />
        <path
           id="path994"
           style="font-weight:bold;fill:#ffffff;stroke-width:0.103593"
           d="m 53.913878,29.417046 v 2.014902 l -1.530217,-2.014902 h -0.643938 v 3.420486 h 0.727026 v -2.007977 l 1.530218,2.007977 h 0.643937 V 29.417046 H 54.08698 Z" />
        <path
           id="path996"
           style="font-weight:bold;fill:#ffffff;stroke-width:0.103593"
           d="m 57.972437,29.333958 c -0.276963,0 -0.560849,0.06924 -0.796267,0.249266 -0.228494,0.173101 -0.401596,0.498532 -0.401596,0.837811 0,0.325431 0.193874,0.643938 0.401596,0.789343 0.228494,0.159253 0.44314,0.214646 0.643937,0.276962 0.09001,0.0277 0.173102,0.04154 0.263115,0.06232 0.04154,0.01385 0.08309,0.0277 0.117709,0.06232 0.04154,0.0277 0.08309,0.07616 0.09001,0.138482 0.02077,0.08309 -0.0069,0.180025 -0.06232,0.249266 -0.05539,0.07616 -0.145405,0.131557 -0.25619,0.159253 -0.22157,0.05539 -0.422368,0.0069 -0.581621,-0.05539 -0.07617,-0.03462 -0.145406,-0.06924 -0.193874,-0.09694 l -0.373899,0.678558 c 0.463912,0.228494 0.872431,0.242342 1.128621,0.242342 0.588546,0 1.14247,-0.470836 1.14247,-1.149394 0,-0.318507 -0.207721,-0.637014 -0.408519,-0.775495 -0.228494,-0.152329 -0.44314,-0.207722 -0.637014,-0.270038 v 0 c -0.07616,-0.02077 -0.180025,-0.04154 -0.276962,-0.07616 -0.04154,-0.01385 -0.09001,-0.03462 -0.131557,-0.06924 -0.04154,-0.03462 -0.08309,-0.103861 -0.08309,-0.166178 0,-0.103861 0.04154,-0.193874 0.110785,-0.25619 0.06924,-0.06232 0.152329,-0.103861 0.249266,-0.117709 0.18695,-0.02077 0.373899,0.04847 0.512381,0.117709 0.05539,0.0277 0.09001,0.04847 0.124633,0.06924 l 0.32543,-0.692406 C 58.512506,29.382436 58.235544,29.333968 57.97243,29.333968 Z" />
        <path
           id="path998"
           style="font-weight:bold;fill:#ffffff;stroke-width:0.103593"
           d="m 61.025059,29.417046 v 0.733951 h 0.782419 0.25619 v 2.686535 h 0.747798 v -2.686535 h 0.249266 0.789343 v -0.733951 h -0.789343 -1.253254 z" />
        <path
           id="path1000"
           style="font-weight:bold;fill:#ffffff;stroke-width:0.103593"
           d="M 67.444722,29.417046 H 66.05991 v 3.420486 h 0.727026 V 32.297455 32.18667 h 0.145405 l 0.796267,0.650862 h 1.003989 l -0.893204,-0.747798 c 0.533153,-0.173102 0.879356,-0.692406 0.879356,-1.301724 0,-0.754722 -0.526229,-1.370964 -1.274027,-1.370964 z m -0.657786,0.761647 h 0.581621 c 0.339279,0 0.602393,0.270038 0.602393,0.609317 0,0.332355 -0.270038,0.588545 -0.602393,0.609318 h -0.581621 z" />
        <path
           id="path1002"
           style="font-weight:bold;fill:#ffffff;stroke-width:0.103593"
           d="m 70.864861,29.417046 v 2.104915 0.0277 0 c 0.01385,0.761646 0.630089,1.377888 1.384812,1.377888 0.754722,0 1.370963,-0.616242 1.384811,-1.377888 v 0 -0.0277 -2.104915 h -0.747798 v 0.865508 1.218634 0.04847 0 c -0.01385,0.332355 -0.311583,0.623165 -0.637013,0.623165 -0.332355,0 -0.63009,-0.29081 -0.643938,-0.623165 v 0 -0.04847 -1.218634 -0.865508 z" />
        <path
           id="path1004"
           style="font-weight:bold;fill:#ffffff;stroke-width:0.103593"
           d="m 77.592104,29.333958 c -0.941673,0 -1.814104,0.685482 -1.814104,1.793331 v 0 c 0,1.114774 0.872431,1.800256 1.814104,1.800256 v 0 c 0.450063,0 0.893203,-0.145405 1.315571,-0.44314 L 78.533776,31.93048 c -0.401596,0.263114 -0.678558,0.290811 -0.941672,0.290811 -0.540077,0 -1.07323,-0.505457 -1.07323,-1.094002 0,-0.588545 0.533153,-1.087077 1.07323,-1.087077 0.263114,0 0.540076,0.0277 0.941672,0.29081 l 0.373899,-0.553924 c -0.422368,-0.297735 -0.865508,-0.44314 -1.315571,-0.44314 z" />
        <path
           id="path1006"
           style="font-weight:bold;fill:#ffffff;stroke-width:0.103593"
           d="m 81.042751,29.417046 v 0.733951 h 0.782419 0.25619 v 2.686535 h 0.747799 v -2.686535 h 0.249266 0.789343 V 29.417046 H 83.078425 81.82517 Z" />
        <path
           id="path1008"
           style="font-weight:bold;fill:#ffffff;stroke-width:0.103593"
           d="m 86.077602,32.837532 h 0.727027 v -3.420486 h -0.727027 z" />
        <path
           id="path1010"
           style="font-weight:bold;fill:#ffffff;stroke-width:0.103593"
           d="m 90.735413,29.333958 c -0.997064,0 -1.800255,0.803191 -1.800255,1.793331 0,0.997065 0.803191,1.800256 1.800255,1.800256 0.997065,0 1.80718,-0.803191 1.80718,-1.800256 0,-0.99014 -0.810115,-1.793331 -1.80718,-1.793331 z m 0,0.706254 c 0.540077,0 1.066306,0.498532 1.066306,1.087077 0,0.588545 -0.526229,1.094002 -1.066306,1.094002 -0.533152,0 -1.059381,-0.505457 -1.059381,-1.094002 0,-0.588545 0.526229,-1.087077 1.059381,-1.087077 z" />
        <path
           id="path1012"
           style="font-weight:bold;fill:#ffffff;stroke-width:0.103593"
           d="m 96.847392,29.417046 v 2.014902 l -1.530218,-2.014902 h -0.643937 v 3.420486 h 0.727026 v -2.007977 l 1.530217,2.007977 h 0.643938 v -3.420486 h -0.553925 z" />
      </g>
      <g
         id="g1252"
         style="stroke-width:0.23938">
        <g
           id="g1250"
           transform="translate(-70.393156,-41.559602)"
           style="stroke-width:0.23938">
          <path
             d="m 103.28672,62.445283 c 0.22518,0.698743 0.3483,1.444466 0.3483,2.220536 0,3.981988 -3.20001,7.181993 -7.181993,7.181991 -3.981987,0 -7.181474,-3.200003 -7.181474,-7.181991 0,-0.759724 0.11716,-1.49063 0.333312,-2.17661 l -2.952274,1.475877 c -0.01648,0.231791 -0.02739,0.464879 -0.02739,0.700733 0,5.411899 4.415925,9.82834 9.827826,9.82834 5.411893,3e-6 9.828343,-4.416441 9.828343,-9.82834 0,-0.344114 -0.0184,-0.683876 -0.0532,-1.019058 z"
             style="color:#000000;font-style:normal;font-variant:normal;font-weight:normal;font-stretch:normal;font-size:medium;line-height:normal;font-family:sans-serif;font-variant-ligatures:normal;font-variant-position:normal;font-variant-caps:normal;font-variant-numeric:normal;font-variant-alternates:normal;font-variant-east-asian:normal;font-feature-settings:normal;font-variation-settings:normal;text-indent:0;text-align:start;text-decoration:none;text-decoration-line:none;text-decoration-style:solid;text-decoration-color:#000000;letter-spacing:normal;word-spacing:normal;text-transform:none;writing-mode:lr-tb;direction:ltr;text-orientation:mixed;dominant-baseline:auto;baseline-shift:baseline;text-anchor:start;white-space:normal;shape-padding:0;shape-margin:0;inline-size:0;clip-rule:nonzero;display:inline;overflow:visible;visibility:visible;opacity:1;isolation:auto;mix-blend-mode:normal;color-interpolation:sRGB;color-interpolation-filters:linearRGB;solid-color:#000000;solid-opacity:1;vector-effect:none;fill:#ff0000;fill-opacity:1;fill-rule:nonzero;stroke:none;stroke-width:0.633359;stroke-linecap:round;stroke-linejoin:miter;stroke-miterlimit:4;stroke-dasharray:none;stroke-dashoffset:0;stroke-opacity:1;paint-order:fill markers stroke;color-rendering:auto;image-rendering:auto;shape-rendering:auto;text-rendering:auto;enable-background:accumulate;stop-color:#000000"
             id="path1234" />
          <g
             id="g1248"
             style="stroke-width:0.23938">
            <g
               id="g1240"
               style="opacity:1;fill:#ff0000;stroke-width:0.23938">
              <path
                 style="color:#000000;font-style:normal;font-variant:normal;font-weight:normal;font-stretch:normal;font-size:medium;line-height:normal;font-family:sans-serif;font-variant-ligatures:normal;font-variant-position:normal;font-variant-caps:normal;font-variant-numeric:normal;font-variant-alternates:normal;font-variant-east-asian:normal;font-feature-settings:normal;font-variation-settings:normal;text-indent:0;text-align:start;text-decoration:none;text-decoration-line:none;text-decoration-style:solid;text-decoration-color:#000000;letter-spacing:normal;word-spacing:normal;text-transform:none;writing-mode:lr-tb;direction:ltr;text-orientation:mixed;dominant-baseline:auto;baseline-shift:baseline;text-anchor:start;white-space:normal;shape-padding:0;shape-margin:0;inline-size:0;clip-rule:nonzero;display:inline;overflow:visible;visibility:visible;isolation:auto;mix-blend-mode:normal;color-interpolation:sRGB;color-interpolation-filters:linearRGB;solid-color:#000000;solid-opacity:1;vector-effect:none;fill:#ff0000;fill-opacity:1;fill-rule:nonzero;stroke:none;stroke-width:0.633359;stroke-linecap:round;stroke-linejoin:round;stroke-miterlimit:4;stroke-dasharray:none;stroke-dashoffset:0;stroke-opacity:1;color-rendering:auto;image-rendering:auto;shape-rendering:auto;text-rendering:auto;enable-background:accumulate;stop-color:#000000;stop-opacity:1"
                 d="M 84.953819,64.292632 96.377931,56.156419"
                 id="path1236" />
              <path
                 style="color:#000000;font-style:normal;font-variant:normal;font-weight:normal;font-stretch:normal;font-size:medium;line-height:normal;font-family:sans-serif;font-variant-ligatures:normal;font-variant-position:normal;font-variant-caps:normal;font-variant-numeric:normal;font-variant-alternates:normal;font-variant-east-asian:normal;font-feature-settings:normal;font-variation-settings:normal;text-indent:0;text-align:start;text-decoration:none;text-decoration-line:none;text-decoration-style:solid;text-decoration-color:#000000;letter-spacing:normal;word-spacing:normal;text-transform:none;writing-mode:lr-tb;direction:ltr;text-orientation:mixed;dominant-baseline:auto;baseline-shift:baseline;text-anchor:start;white-space:normal;shape-padding:0;shape-margin:0;inline-size:0;clip-rule:nonzero;display:inline;overflow:visible;visibility:visible;isolation:auto;mix-blend-mode:normal;color-interpolation:sRGB;color-interpolation-filters:linearRGB;solid-color:#000000;solid-opacity:1;vector-effect:none;fill:#ff0000;fill-opacity:1;fill-rule:nonzero;stroke:none;stroke-width:0.633359;stroke-linecap:round;stroke-linejoin:round;stroke-miterlimit:4;stroke-dasharray:none;stroke-dashoffset:0;stroke-opacity:1;color-rendering:auto;image-rendering:auto;shape-rendering:auto;text-rendering:auto;enable-background:accumulate;stop-color:#000000;stop-opacity:1"
                 d="m 96.380859,54.833984 a 1.322915,1.322915 0 0 0 -0.769531,0.244141 l -11.425781,8.136719 a 1.322915,1.322915 0 0 0 -0.308594,1.845703 1.322915,1.322915 0 0 0 1.84375,0.310547 l 11.423828,-8.136719 a 1.322915,1.322915 0 0 0 0.310547,-1.845703 1.322915,1.322915 0 0 0 -1.074219,-0.554688 z"
                 id="path1238" />
            </g>
            <g
               id="g1246"
               style="opacity:1;fill:#ff0000;stroke-width:0.23938">
              <path
                 style="color:#000000;font-style:normal;font-variant:normal;font-weight:normal;font-stretch:normal;font-size:medium;line-height:normal;font-family:sans-serif;font-variant-ligatures:normal;font-variant-position:normal;font-variant-caps:normal;font-variant-numeric:normal;font-variant-alternates:normal;font-variant-east-asian:normal;font-feature-settings:normal;font-variation-settings:normal;text-indent:0;text-align:start;text-decoration:none;text-decoration-line:none;text-decoration-style:solid;text-decoration-color:#000000;letter-spacing:normal;word-spacing:normal;text-transform:none;writing-mode:lr-tb;direction:ltr;text-orientation:mixed;dominant-baseline:auto;baseline-shift:baseline;text-anchor:start;white-space:normal;shape-padding:0;shape-margin:0;inline-size:0;clip-rule:nonzero;display:inline;overflow:visible;visibility:visible;isolation:auto;mix-blend-mode:normal;color-interpolation:sRGB;color-interpolation-filters:linearRGB;solid-color:#000000;solid-opacity:1;vector-effect:none;fill:#ff0000;fill-opacity:1;fill-rule:nonzero;stroke:none;stroke-width:0.633359;stroke-linecap:round;stroke-linejoin:round;stroke-miterlimit:4;stroke-dasharray:none;stroke-dashoffset:0;stroke-opacity:1;color-rendering:auto;image-rendering:auto;shape-rendering:auto;text-rendering:auto;enable-background:accumulate;stop-color:#000000;stop-opacity:1"
                 d="M 107.80943,64.292632 96.385313,56.156419"
                 id="path1242" />
              <path
                 style="color:#000000;font-style:normal;font-variant:normal;font-weight:normal;font-stretch:normal;font-size:medium;line-height:normal;font-family:sans-serif;font-variant-ligatures:normal;font-variant-position:normal;font-variant-caps:normal;font-variant-numeric:normal;font-variant-alternates:normal;font-variant-east-asian:normal;font-feature-settings:normal;font-variation-settings:normal;text-indent:0;text-align:start;text-decoration:none;text-decoration-line:none;text-decoration-style:solid;text-decoration-color:#000000;letter-spacing:normal;word-spacing:normal;text-transform:none;writing-mode:lr-tb;direction:ltr;text-orientation:mixed;dominant-baseline:auto;baseline-shift:baseline;text-anchor:start;white-space:normal;shape-padding:0;shape-margin:0;inline-size:0;clip-rule:nonzero;display:inline;overflow:visible;visibility:visible;isolation:auto;mix-blend-mode:normal;color-interpolation:sRGB;color-interpolation-filters:linearRGB;solid-color:#000000;solid-opacity:1;vector-effect:none;fill:#ff0000;fill-opacity:1;fill-rule:nonzero;stroke:none;stroke-width:0.633359;stroke-linecap:round;stroke-linejoin:round;stroke-miterlimit:4;stroke-dasharray:none;stroke-dashoffset:0;stroke-opacity:1;color-rendering:auto;image-rendering:auto;shape-rendering:auto;text-rendering:auto;enable-background:accumulate;stop-color:#000000;stop-opacity:1"
                 d="m 96.333984,54.833984 a 1.322915,1.322915 0 0 0 -1.02539,0.554688 1.322915,1.322915 0 0 0 0.308594,1.845703 l 11.425782,8.136719 a 1.322915,1.322915 0 0 0 1.84375,-0.310547 1.322915,1.322915 0 0 0 -0.31055,-1.845703 L 97.152344,55.078125 a 1.322915,1.322915 0 0 0 -0.81836,-0.244141 z"
                 id="path1244" />
            </g>
          </g>
        </g>
      </g>
    </g>
  </g>
</svg>
